<svg xmlns="http://www.w3.org/2000/svg" xmlns:xlink="http://www.w3.org/1999/xlink" width="100%" height="100%" version="1.1" viewBox="0 0 2635 2643" xml:space="preserve" style="fill-rule:evenodd;clip-rule:evenodd;stroke-linejoin:round;stroke-miterlimit:2"><g transform="matrix(5.55556,0,0,5.55556,-2266.26,-5019.23)"><g id="Artboard1" transform="matrix(1,0,0,1,4.98653,861.602)"><rect width="1280" height="800" x="0" y="0" style="fill:#fff"/><g><g><g><text x="270.964" y="116.681" style="font-family:'SIL-Hei-Med-Jian','Hei';font-size:37.75px;fill:#364518" transform="matrix(2.26396,0,0,2.26396,-248.995,-330.903) matrix(1.12418,0,0,1.0596,12.5777,232.602) matrix(0.980261,0,0,1.16,5.34851,-18.6689)">V<tspan x="305.126 342.441 379.755" y="116.681 116.681 116.681">UNA</tspan></text></g><g><text x="270.964" y="133.668" style="font-family:'SIL-Hei-Med-Jian','Hei';font-size:15.1px;fill:#364518" transform="matrix(2.26396,0,0,2.26396,-248.995,-330.903) matrix(1.12418,0,0,1.0596,12.5777,232.602) matrix(1.06,0,0,1.16,-16.2579,-21.3869)">T<tspan x="281.103 289.974 301.691 314.035 326.378 339.046 347.298 359.966 372.309 377.398 386.269" y="133.668 133.668 133.668 133.668 133.668 133.668 133.668 133.668 133.668 133.668 133.668">ECHNOLOGIES</tspan></text></g></g><g><g><path d="M468.249,173.722C468.249,173.722 404.343,228.093 468.249,306.012C468.249,306.012 529.621,243.591 468.249,173.722Z" style="fill:#df872c" transform="matrix(2.26396,0,0,2.26396,-248.995,-330.903) matrix(-0.94175,1.2526e-16,-3.2023e-16,-0.919875,831.683,446.144)"/></g><g><path d="M468.249,173.722C468.249,173.722 404.343,228.093 468.249,306.012C468.249,306.012 529.621,243.591 468.249,173.722Z" style="fill:#b45400" transform="matrix(2.26396,0,0,2.26396,-248.995,-330.903) matrix(0.386314,0.269231,-0.291814,0.418717,338.371,-8.2812)"/></g><g><path d="M468.249,173.722C468.249,173.722 404.343,228.093 468.249,306.012C468.249,306.012 529.621,243.591 468.249,173.722Z" style="fill:#b45400" transform="matrix(2.26396,0,0,2.26396,-248.995,-330.903) matrix(-0.386314,0.269231,0.291814,0.418717,444.47,-9.34751)"/></g><g><path d="M468.249,173.722C468.249,173.722 404.343,228.093 468.249,306.012C468.249,306.012 529.621,243.591 468.249,173.722Z" style="fill:#9bbb59" transform="matrix(2.26396,0,0,2.26396,-248.995,-330.903) matrix(-0.408114,0.559963,-0.78069,-0.568984,717.961,150.611)"/></g><g><path d="M468.249,173.722C468.249,173.722 404.343,228.093 468.249,306.012C468.249,306.012 529.621,243.591 468.249,173.722Z" style="fill:#9bbb59" transform="matrix(2.26396,0,0,2.26396,-248.995,-330.903) matrix(-0.385893,-0.575502,0.802353,-0.538004,432.548,676.715)"/></g></g></g></g></g></svg>